<svg width="24" height="25" viewBox="0 0 24 25" fill="none" xmlns="http://www.w3.org/2000/svg">
<g id="SVG">
<path id="Vector" d="M9.00001 16.27L5.53001 12.8C5.43751 12.7073 5.32762 12.6338 5.20665 12.5836C5.08567 12.5334 4.95599 12.5075 4.82501 12.5075C4.69404 12.5075 4.56436 12.5334 4.44338 12.5836C4.32241 12.6338 4.21252 12.7073 4.12001 12.8C3.73001 13.19 3.73001 13.82 4.12001 14.21L8.30001 18.39C8.69001 18.78 9.32001 18.78 9.71001 18.39L20.29 7.81003C20.68 7.42003 20.68 6.79003 20.29 6.40003C20.1975 6.30731 20.0876 6.23376 19.9666 6.18357C19.8457 6.13338 19.716 6.10754 19.585 6.10754C19.454 6.10754 19.3244 6.13338 19.2034 6.18357C19.0824 6.23376 18.9725 6.30731 18.88 6.40003L9.00001 16.27Z" fill="black"/>
</g>
</svg>
