<svg width="128" height="27" viewBox="0 0 128 27" fill="none" xmlns="http://www.w3.org/2000/svg">
<g clip-path="url(#clip0_3_956)">
<mask id="mask0_3_956" style="mask-type:luminance" maskUnits="userSpaceOnUse" x="0" y="0" width="128" height="27">
<path d="M0.582397 0.5H127.218V26.5H0.582397V0.5Z" fill="white"/>
</mask>
<g mask="url(#mask0_3_956)">
<path d="M39.46 4.93529C41.6068 4.88447 43.686 5.68755 45.2412 7.16824C45.2868 7.20842 45.3233 7.25784 45.3483 7.31322C45.3733 7.3686 45.3862 7.42866 45.3862 7.48941C45.3862 7.55017 45.3733 7.61023 45.3483 7.6656C45.3233 7.72098 45.2868 7.7704 45.2412 7.81059L43.8341 9.34C43.7949 9.38107 43.7472 9.41324 43.6945 9.43434C43.6417 9.45545 43.585 9.465 43.5283 9.46235C43.4691 9.46122 43.411 9.4469 43.358 9.42045C43.3051 9.39399 43.2588 9.35605 43.2224 9.30941C42.2035 8.42149 40.9031 7.92301 39.5518 7.90235C38.8248 7.91364 38.1073 8.06961 37.4412 8.36118C36.7851 8.65025 36.1926 9.06605 35.6977 9.58471C35.2074 10.0959 34.8228 10.6988 34.5659 11.3588C34.3034 12.0307 34.1786 12.7484 34.1988 13.4694C34.1864 14.181 34.3151 14.8881 34.5776 15.5496C34.8401 16.2112 35.2312 16.8141 35.7283 17.3235C36.2322 17.8455 36.8354 18.2615 37.5024 18.5471C38.1609 18.8249 38.8677 18.9705 39.5824 18.9753C40.9289 18.958 42.2271 18.4711 43.253 17.5988C43.3371 17.5236 43.446 17.482 43.5588 17.482C43.6717 17.482 43.7806 17.5236 43.8647 17.5988L45.333 19.1282C45.417 19.214 45.4641 19.3293 45.4641 19.4494C45.4641 19.5695 45.417 19.6848 45.333 19.7706C43.7709 21.2669 41.6841 22.0906 39.5212 22.0647C38.3722 22.0955 37.2286 21.8979 36.1565 21.4835C35.0855 21.0693 34.1079 20.4453 33.2812 19.6482C32.4567 18.8489 31.8013 17.8919 31.3541 16.8341C30.9066 15.7795 30.6759 14.6456 30.6759 13.5C30.6759 12.3544 30.9066 11.2205 31.3541 10.1659C31.8049 9.11906 32.46 8.17273 33.2812 7.38235C34.1079 6.58529 35.0855 5.96133 36.1565 5.54706C37.2264 5.12221 38.3702 4.91426 39.5212 4.93529H39.46ZM47.4741 21.2388L54.9377 5.21059C54.9685 5.12998 55.023 5.06056 55.0939 5.01143C55.1649 4.96231 55.249 4.93577 55.3353 4.93529H55.58C55.6663 4.93577 55.7505 4.96231 55.8214 5.01143C55.8924 5.06056 55.9468 5.12998 55.9777 5.21059L63.3494 21.2388C63.3808 21.3049 63.3947 21.378 63.3899 21.451C63.385 21.524 63.3615 21.5945 63.3216 21.6559C63.2818 21.7172 63.2268 21.7673 63.1621 21.8014C63.0973 21.8355 63.0249 21.8524 62.9518 21.8506H60.8412C60.689 21.8573 60.5387 21.8143 60.413 21.7282C60.281 21.6419 60.1836 21.512 60.1377 21.3612L58.9753 18.7918H51.8177L50.6247 21.3612C50.5745 21.5098 50.4781 21.6384 50.3494 21.7282C50.2271 21.7894 50.0741 21.8506 49.9212 21.8506H47.8412C47.7695 21.8532 47.6984 21.8377 47.6343 21.8057C47.5701 21.7736 47.5151 21.7259 47.4741 21.6671C47.4318 21.6047 47.4067 21.5322 47.4013 21.4571C47.3959 21.3819 47.4105 21.3066 47.4436 21.2388H47.4741ZM57.7824 16.1612L55.4271 10.9H55.3353L53.0106 16.1612H57.7824ZM68.6718 5.30235C68.6772 5.24847 68.6935 5.19626 68.7198 5.14892C68.7461 5.10158 68.7818 5.06011 68.8247 5.02706C68.8859 4.96588 69.0083 4.93529 69.1306 4.93529H69.4977C69.5805 4.93323 69.6622 4.95525 69.7328 4.99869C69.8034 5.04212 69.8598 5.10511 69.8953 5.18L75.1871 16.4059H75.2788L80.54 5.18C80.572 5.10249 80.6277 5.03709 80.6991 4.99314C80.7706 4.94919 80.8541 4.92894 80.9377 4.93529H81.3353C81.4271 4.93529 81.5494 4.96588 81.6412 5.02706C81.7165 5.09923 81.7604 5.19809 81.7635 5.30235L84.5777 21.3C84.6107 21.3979 84.6073 21.5045 84.5679 21.6001C84.5286 21.6956 84.456 21.7738 84.3635 21.82L84.1494 21.8506H82.0083C81.8984 21.849 81.7918 21.8126 81.7039 21.7466C81.6159 21.6807 81.5512 21.5886 81.5188 21.4835L80.1118 12.46H80.0506L75.8294 21.8506C75.7985 21.926 75.7451 21.9901 75.6765 22.0341C75.6153 22.0953 75.5236 22.0953 75.4318 22.0953H75.0036C74.9207 22.0974 74.839 22.0753 74.7684 22.0319C74.6979 21.9885 74.6414 21.9255 74.6059 21.8506L70.3235 12.4294H70.2624L68.8553 21.4529C68.835 21.5531 68.7818 21.6436 68.7043 21.71C68.6267 21.7765 68.5291 21.8152 68.4271 21.82H66.2859C66.212 21.8314 66.1365 21.8233 66.0667 21.7965C65.9969 21.7697 65.9354 21.725 65.8883 21.6671C65.841 21.6075 65.8104 21.5365 65.7996 21.4612C65.7889 21.386 65.7983 21.3092 65.8271 21.2388L68.6718 5.27177V5.30235ZM88.5541 5.60824C88.5619 5.49193 88.6137 5.38293 88.6989 5.3034C88.7841 5.22386 88.8964 5.17974 89.013 5.18H94.5188C97.333 5.18 99.5659 7.07647 99.5659 9.58471C99.5659 11.42 98.0365 12.8576 96.9353 13.3776C98.1894 13.7753 100.025 15.06 100.025 17.2624C100.025 19.9235 97.7306 21.8506 94.8247 21.8506H89.013C88.8951 21.8409 88.7855 21.7861 88.7071 21.6976C88.6186 21.6192 88.5638 21.5096 88.5541 21.3918V5.63882V5.60824ZM94.213 12.1847C94.4877 12.1775 94.7581 12.1151 95.0083 12.0012C95.2719 11.8984 95.5115 11.7422 95.7118 11.5424C95.8992 11.3421 96.0445 11.1062 96.1391 10.8488C96.2336 10.5913 96.2756 10.3175 96.2624 10.0435C96.278 9.77278 96.2363 9.50177 96.14 9.24824C96.0382 8.99616 95.8849 8.76806 95.6901 8.57847C95.4952 8.38888 95.263 8.24196 95.0083 8.14706C94.7545 8.05165 94.4837 8.00998 94.213 8.02471H91.6436V12.1847H94.213ZM94.5188 19.0365C94.8118 19.0446 95.1033 18.9926 95.3753 18.8835C95.6404 18.7695 95.8797 18.603 96.0788 18.3941C96.2877 18.195 96.4542 17.9557 96.5683 17.6906C96.6733 17.4281 96.7252 17.1474 96.7212 16.8647C96.7212 15.6718 95.4977 14.7847 94.2741 14.7847H91.6436V19.0365H94.5494H94.5188ZM104.276 5.63882C104.276 5.52226 104.32 5.40996 104.4 5.32474C104.479 5.23952 104.588 5.18777 104.705 5.18H106.907C107.029 5.18 107.145 5.22834 107.232 5.31439C107.318 5.40043 107.366 5.51714 107.366 5.63882V18.9753H113.484C113.601 18.985 113.711 19.0397 113.789 19.1282C113.881 19.1894 113.942 19.3118 113.942 19.4341V21.3918C113.942 21.5141 113.881 21.6365 113.82 21.6976C113.778 21.7451 113.726 21.7832 113.668 21.8095C113.61 21.8358 113.547 21.8498 113.484 21.8506H104.705C104.616 21.8437 104.531 21.8111 104.46 21.7568C104.39 21.7025 104.337 21.6288 104.307 21.5447C104.288 21.4958 104.278 21.4441 104.276 21.3918V5.63882ZM118.5 13.8059L113.025 5.85294C112.992 5.80344 112.97 5.74771 112.96 5.68928C112.95 5.63085 112.952 5.57099 112.967 5.51348C112.981 5.45597 113.007 5.40208 113.044 5.35521C113.08 5.30834 113.126 5.26951 113.178 5.24118L113.422 5.18H115.869C115.943 5.18345 116.015 5.20472 116.079 5.242C116.143 5.27929 116.197 5.33148 116.236 5.39412L120.091 10.8694L123.914 5.36353C123.96 5.30222 124.02 5.25331 124.09 5.22126C124.159 5.18921 124.235 5.17502 124.312 5.18H126.759C126.838 5.17837 126.916 5.19723 126.986 5.23475C127.056 5.27226 127.114 5.32717 127.156 5.39412C127.206 5.46593 127.233 5.55132 127.233 5.63882C127.233 5.72632 127.206 5.81172 127.156 5.88353L121.589 13.8059V21.3918C121.588 21.5054 121.544 21.6143 121.467 21.6976C121.389 21.7861 121.279 21.8409 121.161 21.8506H118.928C118.81 21.8409 118.701 21.7861 118.622 21.6976C118.534 21.6192 118.479 21.5096 118.469 21.3918L118.5 13.8059Z" fill="white"/>
<path d="M26.7353 13.4082C26.7193 11.697 26.3664 10.0057 25.6967 8.43087C25.0271 6.85604 24.0538 5.42854 22.8324 4.22988C21.611 3.03123 20.1655 2.08489 18.5784 1.44492C16.9912 0.804941 15.2936 0.483857 13.5824 0.5C11.8712 0.504012 10.1775 0.845033 8.5981 1.50359C7.0187 2.16215 5.58447 3.12535 4.3773 4.33819C3.17014 5.55103 2.21369 6.98977 1.56255 8.57225C0.911416 10.1547 0.578351 11.85 0.582372 13.5612C0.594366 15.275 0.944323 16.9696 1.6122 18.548C2.28008 20.1263 3.25277 21.5574 4.47454 22.7593C5.69632 23.9612 7.1432 24.9103 8.73231 25.5521C10.3214 26.194 12.0215 26.5161 13.7353 26.5C15.4465 26.496 17.1402 26.155 18.7196 25.4964C20.299 24.8379 21.7332 23.8747 22.9404 22.6618C24.1475 21.449 25.104 20.0102 25.7551 18.4277C26.4063 16.8453 26.7393 15.15 26.7353 13.4388V13.4082Z" fill="#FFC929"/>
<path d="M15.8765 26.3471C15.1492 26.4729 14.4122 26.5343 13.6741 26.5306C13.2765 26.5306 12.9094 26.5306 12.5423 26.4694C12.7871 26.0412 4.28352 19.3424 4.09999 19.5871C3.88588 17.4153 2.32588 14.4482 2.57058 12.1847C2.81529 8.75882 6.4247 7.10706 9.45294 7.71882C10.0709 7.83481 10.6557 8.08545 11.1659 8.45294V8.48353C10.4929 9.06471 13.98 13.6835 14.1635 13.4694C14.5306 14.4788 14.8059 15.3965 15.0812 16.0694C16.4271 19.8012 17.2223 23.2576 15.8459 26.3471H15.8765Z" fill="#EF502E"/>
<path d="M8.87177 13.2859C8.86247 13.2913 8.85192 13.2941 8.84118 13.2941C8.83044 13.2941 8.81989 13.2913 8.81059 13.2859C8.3294 13.1677 7.82805 13.1573 7.34236 13.2553C6.81742 13.365 6.32523 13.5954 5.90471 13.9282C5.89541 13.9336 5.88486 13.9364 5.87412 13.9364C5.86338 13.9364 5.85283 13.9336 5.84353 13.9282C5.61235 13.537 5.47615 13.097 5.44589 12.6435C5.40799 12.3964 5.42099 12.1441 5.48411 11.9021C5.54723 11.6601 5.65913 11.4336 5.81294 11.2365C5.96454 11.0488 6.15163 10.8929 6.36353 10.7776C6.57921 10.6496 6.81849 10.5664 7.06706 10.5329C7.98471 10.4718 8.78 11.0224 8.96353 12.2765C9.00373 12.6157 8.97247 12.9595 8.87177 13.2859Z" fill="white"/>
<path d="M6.45533 12.8882C6.68474 12.6839 6.96179 12.5404 7.26107 12.4709C7.56035 12.4014 7.87228 12.4082 8.16827 12.4906C8.15634 12.3544 8.12545 12.2206 8.0765 12.0929C8.00702 11.8951 7.86485 11.731 7.67886 11.6341C7.48953 11.5387 7.27156 11.5169 7.06709 11.5729C6.93415 11.6114 6.81089 11.6777 6.70544 11.7673C6.59998 11.857 6.51474 11.9679 6.45533 12.0929C6.39774 12.2176 6.36792 12.3533 6.36792 12.4906C6.36792 12.6279 6.39774 12.7636 6.45533 12.8882ZM22.8812 8.23882L15.02 12.3071C14.9283 12.3071 14.8365 12.3988 14.8059 12.46C14.6666 12.8134 14.4587 13.1357 14.1941 13.4082C13.7019 13.9103 13.0559 14.2334 12.3589 14.3259C11.0741 14.5706 9.88121 13.8976 9.94238 13.6529C10.1034 13.1916 10.1455 12.6972 10.0647 12.2153C9.97297 11.1141 9.42239 10.7471 9.66709 10.1047C10.0233 9.43093 10.5376 8.85363 11.1659 8.42235C12.8123 7.13662 14.5278 5.94189 16.3047 4.84353C18.2318 3.74235 20.1589 3.62 22.1777 5.97529C22.61 6.46725 22.9425 7.03866 23.1565 7.65764V7.99412C23.1001 8.10842 23.0013 8.19621 22.8812 8.23882Z" fill="#353535"/>
<path d="M13.5212 22.8294C13.5276 23.2088 13.4969 23.5878 13.4294 23.9612C13.396 24.1362 13.3552 24.3096 13.3071 24.4812C13.2608 24.666 13.2098 24.8496 13.1541 25.0318C12.9977 25.52 12.7928 25.9914 12.5424 26.4388C10.6704 26.2756 8.8554 25.7123 7.22001 24.7871C5.57488 23.8799 4.14535 22.6278 3.02942 21.1165L3.58001 20.26C3.73482 20.0123 3.90868 19.7771 4.10001 19.5565C4.3047 19.3134 4.52984 19.0882 4.77295 18.8835L4.92589 18.7612L5.14001 18.5776L5.38471 18.4553L5.56824 18.3329L5.78236 18.2106L5.99648 18.0882C6.08642 18.0524 6.17833 18.0218 6.27177 17.9965C6.60705 17.8592 6.95555 17.7567 7.31177 17.6906H7.55648L7.92354 17.6294H8.22942C9.03681 17.6278 9.83324 17.8164 10.5541 18.18C10.865 18.3495 11.1616 18.5439 11.4412 18.7612L11.7165 18.9753L11.9612 19.22L12.3282 19.6176L12.6647 20.0765C13.0121 20.5866 13.261 21.1572 13.3988 21.7588C13.4906 22.0953 13.5212 22.4623 13.5212 22.8294Z" fill="#CC2525"/>
</g>
</g>
<defs>
<clipPath id="clip0_3_956">
<rect width="126.635" height="26" fill="white" transform="translate(0.582397 0.5)"/>
</clipPath>
</defs>
</svg>
