<svg width="16" height="17" viewBox="0 0 16 17" fill="none" xmlns="http://www.w3.org/2000/svg">
<g clip-path="url(#clip0_4_563)">
<path fill-rule="evenodd" clip-rule="evenodd" d="M7.19246 1.5771L5.35435 5.30886L1.24141 5.90933C1.07508 5.93401 0.918951 6.00466 0.790624 6.11331C0.662298 6.22197 0.566875 6.36431 0.515113 6.5243C0.463351 6.68428 0.457308 6.85554 0.497665 7.01877C0.538022 7.18201 0.623175 7.33072 0.743523 7.44815L3.71858 10.3507L3.01552 14.4514C2.9874 14.6168 3.006 14.7867 3.06922 14.942C3.13244 15.0974 3.23778 15.232 3.37336 15.3307C3.50895 15.4294 3.6694 15.4883 3.83665 15.5007C4.00389 15.5131 4.17129 15.4787 4.31999 15.4011L7.99999 13.4651L11.6791 15.4011C11.8279 15.479 11.9955 15.5137 12.163 15.5014C12.3305 15.489 12.4912 15.4301 12.627 15.3312C12.7628 15.2324 12.8682 15.0975 12.9314 14.9419C12.9945 14.7862 13.0129 14.616 12.9845 14.4505L12.2814 10.3507L15.2555 7.44815C15.3759 7.33079 15.461 7.18215 15.5014 7.01898C15.5418 6.85582 15.5359 6.68461 15.4842 6.52465C15.4326 6.36469 15.3373 6.22234 15.2091 6.11362C15.0808 6.00491 14.9248 5.93415 14.7586 5.90933L10.6456 5.30886L8.80752 1.5771C8.47811 0.912625 7.5247 0.904155 7.19246 1.5771Z" fill="url(#paint0_linear_4_563)"/>
</g>
<defs>
<linearGradient id="paint0_linear_4_563" x1="7.99999" y1="1.07545" x2="7.99999" y2="15.5065" gradientUnits="userSpaceOnUse">
<stop stop-color="#FFDC73"/>
<stop offset="1" stop-color="#FFC311"/>
</linearGradient>
<clipPath id="clip0_4_563">
<rect width="15.0588" height="16" fill="white" transform="translate(0.470581 0.699951)"/>
</clipPath>
</defs>
</svg>
